<?xml version="1.0" encoding="utf-8"?>
<svg version="1.1" id="Capa_1" x="0px" y="0px" viewBox="0 0 490 490" style="enable-background:new 0 0 490 490;" xmlns="http://www.w3.org/2000/svg">
  <path d="M 128.833 334.605 C 160.914 363.995 191.215 391.755 204.907 416.758 L 245.014 490 L 285.11 416.753 C 298.798 391.749 329.098 363.987 361.178 334.595 C 420.847 279.926 488.478 217.963 488.831 134.414 C 488.975 100.487 475.403 68.092 450.613 43.197 C 423.278 15.745 384.441 0 344.059 0 C 305.778 0 270.919 13.846 245.004 36.422 C 219.087 13.846 184.224 0 145.939 0 C 66.112 0 1.168 60.211 1.168 134.221 C 1.518 217.967 69.157 279.933 128.833 334.605 Z M 145.939 45.719 C 200.659 45.719 245.006 85.326 245.006 134.221 C 245.006 85.326 289.34 45.719 344.059 45.719 C 398.764 45.719 443.32 85.326 443.112 134.221 C 442.674 237.755 289.858 312.866 245.006 394.8 C 200.14 312.866 47.319 237.755 46.887 134.221 C 46.887 85.326 91.225 45.719 145.939 45.719 Z" style="fill: rgb(51, 51, 51);"/>
  <g/>
  <g/>
  <g/>
  <g/>
  <g/>
  <g/>
  <g/>
  <g/>
  <g/>
  <g/>
  <g/>
  <g/>
  <g/>
  <g/>
  <g/>
</svg>